<html>
<head>
<meta charset="UTF-8">
<meta name="viewport" content="width=device-width, initial-scale=1.0"/>

<style>
.comment
{
    padding-left: 20px;
    margin-top: 4px;
    margin-right: 4px;
    margin-bottom: 4px;
    border: 2px #000 solid;
}
.submission
{
    border: 4px #00f solid;
    padding-left: 20px;
}
.hidden
{
    display: none;
}
</style>
</head>
<body><div class="submission" id="t3_6a1w9j">
    <p class="userinfo">
        <a href="https://www.reddit.com/u/vcdupper">vcdupper</a>
        <span class="score"> | 15 points</span>
        <span class="timestamp"> | May 08 2017 23:51:01</span>
    </p>
    <strong>[MOVIE] The.Hunters.Prayer.2017.WEB-DL.1080p.AC3.x264-PRiME [3.23GB]</strong>
    <p><p>Add mega<br>
.nz/#!wW4BiaxB<br>
!WlqitJeND-ZQroEYG_iP8kdO76Nqcs7EX9Vok7yn94o  </p>
<hr>
<h3><a href="https://www.youtube.com/watch?v=3aPvIeBYgpw">TRAILER</a></h3>
<h3><a href="https://youtu.be/ixZnhA7Wmq4">Unsure How To Download?</a>  &lt;------CLICK HERE!!!</h3>
<hr>
<h3>SPECS:</h3>
<h3>R | 1h 31min | Action, Thriller | 9 June 2017 (USA)</h3>
<h3>An assassin helps a young woman avenge the death of her family.</h3>
<p>ImDb: http://www.imdb.com/title/tt2674358/?ref_=fn_al_tt_2  </p>
<p>Complete name : The Hunters Prayer 2017 WEB-DL 1080p AC3 x264[PRiME].mkv<br>
Format : Matroska<br>
Format version : Version 4 / Version 2<br>
File size : 3.23 GiB<br>
Duration : 1 h 30 min<br>
Overall bit rate : 5 094 kb/s<br>
Encoded date : UTC 2017-05-07 17:15:04<br>
Writing application : mkvmerge v9.4.2 (\'So High\') 64bit<br>
Writing library : libebml v1.3.4 + libmatroska v1.4.5  </p>
<p>Video<br>
ID : 1<br>
Format : AVC<br>
Format/Info : Advanced Video Codec<br>
Format profile : High@L4<br>
Format settings, CABAC : Yes<br>
Format settings, ReFrames : 5 frames<br>
Codec ID : V_MPEG4/ISO/AVC<br>
Duration : 1 h 30 min<br>
Bit rate : 4 516 kb/s<br>
Width : 1 920 pixels<br>
Height : 804 pixels<br>
Display aspect ratio : 2.40:1<br>
Frame rate mode : Constant<br>
Frame rate : 23.976 (23976/1000) FPS<br>
Color space : YUV<br>
Chroma subsampling : 4:2:0<br>
Bit depth : 8 bits<br>
Scan type : Progressive<br>
Bits/(Pixel*Frame) : 0.122<br>
Stream size : 2.87 GiB (89%)<br>
Language : English<br>
Default : Yes<br>
Forced : No<br>
Color range : Limited<br>
Color primaries : BT.709<br>
Transfer characteristics : BT.709<br>
Matrix coefficients : BT.709  </p>
<p>Audio #1<br>
ID : 2<br>
Format : AC-3<br>
Format/Info : Audio Coding 3<br>
Mode extension : CM (complete main)<br>
Format settings, Endianness : Big<br>
Codec ID : A_AC3<br>
Duration : 1 h 30 min 
Bit rate mode : Constant<br>
Bit rate : 384 kb/s<br>
Channel(s) : 6 channels<br>
Channel positions : Front: L C R, Side: L R, LFE<br>
Sampling rate : 48.0 kHz<br>
Frame rate : 31.250 FPS (1536 spf)<br>
Compression mode : Lossy<br>
Stream size : 249 MiB (8%)<br>
Title : Dolby Digital 5.1<br>
Language : English<br>
Default : Yes<br>
Forced : No  </p>
<p>Audio #2<br>
ID : 3<br>
Format : AC-3<br>
Format/Info : Audio Coding 3<br>
Format profile : Dolby Digital<br>
Mode extension : CM (complete main)<br>
Format settings, Endianness : Big<br>
Codec ID : A_AC3<br>
Duration : 1 h 30 min<br>
Bit rate mode : Constant<br>
Bit rate : 192 kb/s<br>
Channel(s) : 2 channels<br>
Channel positions : Front: L R<br>
Sampling rate : 48.0 kHz<br>
Frame rate : 31.250 FPS (1536 spf)<br>
Compression mode : Lossy<br>
Stream size : 125 MiB (4%)<br>
Title : Stereo<br>
Language : English<br>
Default : No<br>
Forced : No  </p></p>
    <p class="toolbar">
        <a href="https://www.reddit.com/r/megalinks/comments/6a1w9j">permalink</a>
    </p>
</div>
<div class="comment" id="t1_dhb4np9">
    <p class="userinfo">
        <a
        class="toggle_hide_button"
        href="javascript:void(0)"
        onclick="toggle_collapse(this.parentElement.parentElement)">[-]
        </a>
        <a href="https://www.reddit.com/u/dosemeele">dosemeele</a>
        <span class="score"> | 3 points</span>
        <span class="timestamp"> | May 09 2017 00:36:10</span>
    </p>
    <div class="collapsible">
        <p>Thank you! </p>
        <p class="toolbar">
            <a href="https://www.reddit.com/r/megalinks/comments/6a1w9j/_/dhb4np9">permalink</a>
        </p>
        
    </div>
</div>

<div class="comment" id="t1_dhb2p1c">
    <p class="userinfo">
        <a
        class="toggle_hide_button"
        href="javascript:void(0)"
        onclick="toggle_collapse(this.parentElement.parentElement)">[-]
        </a>
        <a href="https://www.reddit.com/u/SubZorro">SubZorro</a>
        <span class="score"> | 1 points</span>
        <span class="timestamp"> | May 08 2017 23:53:05</span>
    </p>
    <div class="collapsible">
        <h5>Subtitles for this movie:</h5>
<hr>
<blockquote>
<ul>
<li>
<p><strong>The.Hunters.Prayer.2017.1080p.WEB-DL.DD5.1.H264-FGT</strong> - <code>1 CD</code> - <a href="http://dl.opensubtitles.org/en/download/vrf-815b98e1/sub/6974314">Download Subtitle</a></p>
</li>
<li>
<p><strong>The.Hunters.Prayer.2017.WEB-DL.1080p.AC3.x264-NoGRP</strong> - <code>1 CD</code> - <a href="http://dl.opensubtitles.org/en/download/vrf-54924ff2/sub/6973985">Download Subtitle</a></p>
</li>
<li>
<p><strong>The.Hunters.Prayer.2017.WEB-DL.x264-FGT</strong> - <code>1 CD</code> - <a href="http://dl.opensubtitles.org/en/download/vrf-c4f6fcb2/sub/6974222">Download Subtitle</a></p>
</li>
</ul>
</blockquote>
<hr>
<p>^This ^list ^of ^subtitles ^are ^taken ^from <a href="http://www.opensubtitles.org">^opensubtitles.org</a> ^| ^For ^feedback ^or ^suggestions ^contact <a href="http://www.reddit.com/message/compose/?to=indigo6alpha">^/u/indigo6alpha</a></p>
        <p class="toolbar">
            <a href="https://www.reddit.com/r/megalinks/comments/6a1w9j/_/dhb2p1c">permalink</a>
        </p>
        
    </div>
</div>
</body>

<script>
function toggle_collapse(comment_div)
{
    var button = comment_div.getElementsByClassName("toggle_hide_button")[0];
    var collapsible = comment_div.getElementsByClassName("collapsible")[0];
    if (collapsible.classList.contains("hidden"))
    {
        collapsible.classList.remove("hidden");
        button.innerText = "[-]";
    }
    else
    {
        collapsible.classList.add("hidden");
        button.innerText = "[+]";
    }
}
</script>
</html>
